<mxfile host="app.diagrams.net" modified="2023-05-26T13:13:04.893Z" agent="Mozilla/5.0 (Windows NT 10.0; Win64; x64; rv:109.0) Gecko/20100101 Firefox/113.0" etag="RzRSd5q5XFIVTbpxgHAc" version="21.2.9" type="github">
  <diagram name="第 1 页" id="JrufRXIIQHaU06la0iRj">
    <mxGraphModel dx="794" dy="479" grid="1" gridSize="10" guides="1" tooltips="1" connect="1" arrows="1" fold="1" page="1" pageScale="1" pageWidth="827" pageHeight="1169" math="0" shadow="0">
      <root>
        <mxCell id="0" />
        <mxCell id="1" parent="0" />
        <mxCell id="X4ZpKcgAw20V4GZtrfSU-8" style="edgeStyle=orthogonalEdgeStyle;rounded=0;orthogonalLoop=1;jettySize=auto;html=1;entryX=0.02;entryY=0.411;entryDx=0;entryDy=0;entryPerimeter=0;sketch=1;curveFitting=1;jiggle=2;" edge="1" parent="1" source="X4ZpKcgAw20V4GZtrfSU-1" target="X4ZpKcgAw20V4GZtrfSU-2">
          <mxGeometry relative="1" as="geometry" />
        </mxCell>
        <mxCell id="X4ZpKcgAw20V4GZtrfSU-1" value="Actor" style="shape=umlActor;verticalLabelPosition=bottom;verticalAlign=top;html=1;outlineConnect=0;sketch=1;curveFitting=1;jiggle=2;" vertex="1" parent="1">
          <mxGeometry x="170" y="190" width="30" height="60" as="geometry" />
        </mxCell>
        <mxCell id="X4ZpKcgAw20V4GZtrfSU-9" style="edgeStyle=orthogonalEdgeStyle;rounded=0;orthogonalLoop=1;jettySize=auto;html=1;entryX=0;entryY=0.5;entryDx=0;entryDy=0;sketch=1;curveFitting=1;jiggle=2;" edge="1" parent="1" source="X4ZpKcgAw20V4GZtrfSU-2" target="X4ZpKcgAw20V4GZtrfSU-3">
          <mxGeometry relative="1" as="geometry" />
        </mxCell>
        <mxCell id="X4ZpKcgAw20V4GZtrfSU-2" value="local machine" style="rounded=1;whiteSpace=wrap;html=1;sketch=1;curveFitting=1;jiggle=2;" vertex="1" parent="1">
          <mxGeometry x="240" y="185" width="150" height="90" as="geometry" />
        </mxCell>
        <mxCell id="X4ZpKcgAw20V4GZtrfSU-11" style="edgeStyle=orthogonalEdgeStyle;rounded=0;orthogonalLoop=1;jettySize=auto;html=1;sketch=1;curveFitting=1;jiggle=2;" edge="1" parent="1" source="X4ZpKcgAw20V4GZtrfSU-3" target="X4ZpKcgAw20V4GZtrfSU-4">
          <mxGeometry relative="1" as="geometry" />
        </mxCell>
        <mxCell id="X4ZpKcgAw20V4GZtrfSU-3" value="EUR" style="rounded=1;whiteSpace=wrap;html=1;sketch=1;curveFitting=1;jiggle=2;" vertex="1" parent="1">
          <mxGeometry x="440" y="200" width="120" height="60" as="geometry" />
        </mxCell>
        <mxCell id="X4ZpKcgAw20V4GZtrfSU-12" style="edgeStyle=orthogonalEdgeStyle;rounded=0;orthogonalLoop=1;jettySize=auto;html=1;sketch=1;curveFitting=1;jiggle=2;" edge="1" parent="1" source="X4ZpKcgAw20V4GZtrfSU-4" target="X4ZpKcgAw20V4GZtrfSU-5">
          <mxGeometry relative="1" as="geometry" />
        </mxCell>
        <mxCell id="X4ZpKcgAw20V4GZtrfSU-4" value="software-pkg" style="rounded=1;whiteSpace=wrap;html=1;sketch=1;curveFitting=1;jiggle=2;" vertex="1" parent="1">
          <mxGeometry x="600" y="200" width="120" height="60" as="geometry" />
        </mxCell>
        <mxCell id="X4ZpKcgAw20V4GZtrfSU-5" value="src-openeuler" style="rounded=1;whiteSpace=wrap;html=1;sketch=1;curveFitting=1;jiggle=2;" vertex="1" parent="1">
          <mxGeometry x="760" y="200" width="120" height="60" as="geometry" />
        </mxCell>
        <mxCell id="X4ZpKcgAw20V4GZtrfSU-6" value="EulerLauncher" style="rounded=1;whiteSpace=wrap;html=1;sketch=1;curveFitting=1;jiggle=2;" vertex="1" parent="1">
          <mxGeometry x="300" y="250" width="90" height="25" as="geometry" />
        </mxCell>
        <mxCell id="X4ZpKcgAw20V4GZtrfSU-7" value="openEuler WSL" style="rounded=1;whiteSpace=wrap;html=1;sketch=1;curveFitting=1;jiggle=2;" vertex="1" parent="1">
          <mxGeometry x="300" y="185" width="90" height="20" as="geometry" />
        </mxCell>
      </root>
    </mxGraphModel>
  </diagram>
</mxfile>
